<?xml version="1.0" encoding="utf-8"?><svg viewBox="0 0 48 48" xmlns="http://www.w3.org/2000/svg" xmlns:xlink="http://www.w3.org/1999/xlink"><style>:root>svg{display:none}:root>svg:target{display:block}</style><svg viewBox="0 0 100 100" id="flickr" xmlns="http://www.w3.org/2000/svg"><path d="M23.5 93C16.607 93 11 87.393 11 80.5v-57C11 16.607 16.607 11 23.5 11h57C87.393 11 93 16.607 93 23.5v57C93 87.393 87.393 93 80.5 93h-57z" opacity=".35"/><path fill="#f2f2f2" d="M21.5 91C14.607 91 9 85.393 9 78.5v-57C9 14.607 14.607 9 21.5 9h57C85.393 9 91 14.607 91 21.5v57C91 85.393 85.393 91 78.5 91h-57z"/><path fill="#d9eeff" d="M15.5 78.5v-57a6 6 0 016-6h57a6 6 0 016 6v57a6 6 0 01-6 6h-57a6 6 0 01-6-6z"/><path fill="#40396e" d="M78.5 86h-57c-4.136 0-7.5-3.364-7.5-7.5v-57c0-4.136 3.364-7.5 7.5-7.5h57c4.136 0 7.5 3.364 7.5 7.5v57c0 4.136-3.364 7.5-7.5 7.5zm-57-69a4.505 4.505 0 00-4.5 4.5v57c0 2.481 2.019 4.5 4.5 4.5h57c2.481 0 4.5-2.019 4.5-4.5v-57c0-2.481-2.019-4.5-4.5-4.5h-57z"/><path fill="#2b59a1" d="M35.333 37.167C28.246 37.167 22.5 42.912 22.5 50s5.746 12.833 12.833 12.833S48.167 57.088 48.167 50s-5.746-12.833-12.834-12.833z"/><path fill="#d84178" d="M64.667 37.167c-7.088 0-12.833 5.746-12.833 12.833s5.746 12.833 12.833 12.833S77.5 57.088 77.5 50s-5.746-12.833-12.833-12.833z"/></svg><svg viewBox="0 0 48 48" id="linkedIn" xmlns="http://www.w3.org/2000/svg"><path fill="#0288d1" d="M24 4a20 20 0 100 40 20 20 0 100-40z"/><path fill="#fff" d="M14 19h4v15h-4zm1.988-2h-.022C14.772 17 14 16.11 14 14.999c0-1.135.796-1.999 2.011-1.999 1.217 0 1.966.864 1.989 1.999C18 16.11 17.228 17 15.988 17zM35 24.5a5.5 5.5 0 00-5.5-5.5 5.49 5.49 0 00-4.5 2.344V19h-4v15h4v-8a3 3 0 116 0v8h4v-9.5z"/></svg><svg viewBox="0 0 48 48" id="twitter" xmlns="http://www.w3.org/2000/svg"><path fill="#03A9F4" d="M42 12.429a14.978 14.978 0 01-4.247 1.162 7.38 7.38 0 003.251-4.058 14.829 14.829 0 01-4.693 1.776A7.377 7.377 0 0030.926 9c-4.08 0-7.387 3.278-7.387 7.32 0 .572.067 1.129.193 1.67a21.05 21.05 0 01-15.224-7.654 7.23 7.23 0 00-1 3.686c0 2.541 1.301 4.778 3.285 6.096a7.52 7.52 0 01-3.349-.914v.086c0 3.551 2.547 6.508 5.923 7.181a7.346 7.346 0 01-1.941.263c-.477 0-.942-.054-1.392-.135.94 2.902 3.667 5.023 6.898 5.086a14.925 14.925 0 01-9.174 3.134 14.61 14.61 0 01-1.761-.104A21.109 21.109 0 0017.321 38c13.585 0 21.017-11.156 21.017-20.834 0-.317-.01-.633-.025-.945A14.532 14.532 0 0042 12.429"/></svg><svg viewBox="0 0 48 48" id="youtube" xmlns="http://www.w3.org/2000/svg"><path fill="#FF3D00" d="M43.2 33.9c-.4 2.1-2.1 3.7-4.2 4-3.3.5-8.8 1.1-15 1.1-6.1 0-11.6-.6-15-1.1-2.1-.3-3.8-1.9-4.2-4-.4-2.3-.8-5.7-.8-9.9s.4-7.6.8-9.9c.4-2.1 2.1-3.7 4.2-4C12.3 9.6 17.8 9 24 9c6.2 0 11.6.6 15 1.1 2.1.3 3.8 1.9 4.2 4 .4 2.3.9 5.7.9 9.9-.1 4.2-.5 7.6-.9 9.9z"/><path fill="#FFF" d="M20 31V17l12 7z"/></svg></svg>