<svg xmlns="http://www.w3.org/2000/svg"  viewBox="0 0 100 100" width="48px" height="48px"><path d="M23.5,93C16.607,93,11,87.393,11,80.5v-57C11,16.607,16.607,11,23.5,11h57C87.393,11,93,16.607,93,23.5v57 C93,87.393,87.393,93,80.5,93H23.5z" opacity=".35"/><path fill="#f2f2f2" d="M21.5,91C14.607,91,9,85.393,9,78.5v-57C9,14.607,14.607,9,21.5,9h57C85.393,9,91,14.607,91,21.5v57 C91,85.393,85.393,91,78.5,91H21.5z"/><path fill="#d9eeff" d="M15.5,78.5v-57c0-3.314,2.686-6,6-6h57c3.314,0,6,2.686,6,6v57c0,3.314-2.686,6-6,6h-57 C18.186,84.5,15.5,81.814,15.5,78.5z"/><path fill="#40396e" d="M78.5,86h-57c-4.136,0-7.5-3.364-7.5-7.5v-57c0-4.136,3.364-7.5,7.5-7.5h57 c4.136,0,7.5,3.364,7.5,7.5v57C86,82.636,82.636,86,78.5,86z M21.5,17c-2.481,0-4.5,2.019-4.5,4.5v57c0,2.481,2.019,4.5,4.5,4.5h57 c2.481,0,4.5-2.019,4.5-4.5v-57c0-2.481-2.019-4.5-4.5-4.5H21.5z"/><path fill="#2b59a1" d="M35.333,37.167C28.246,37.167,22.5,42.912,22.5,50s5.746,12.833,12.833,12.833 S48.167,57.088,48.167,50S42.421,37.167,35.333,37.167z"/><g><path fill="#d84178" d="M64.667,37.167c-7.088,0-12.833,5.746-12.833,12.833s5.746,12.833,12.833,12.833 S77.5,57.088,77.5,50S71.754,37.167,64.667,37.167z"/></g></svg>